<svg width="20" height="24" viewBox="0 0 20 24" fill="none" xmlns="http://www.w3.org/2000/svg">
<path d="M9.6 12.0255C10.26 12.0255 10.8252 11.7898 11.2956 11.3184C11.7652 10.8478 12 10.2818 12 9.62038C12 8.95898 11.7652 8.39258 11.2956 7.92118C10.8252 7.45059 10.26 7.21529 9.6 7.21529C8.94 7.21529 8.3752 7.45059 7.9056 7.92118C7.4352 8.39258 7.2 8.95898 7.2 9.62038C7.2 10.2818 7.4352 10.8478 7.9056 11.3184C8.3752 11.7898 8.94 12.0255 9.6 12.0255ZM9.6 20.8642C12.04 18.6194 13.85 16.5799 15.03 14.7456C16.21 12.9122 16.8 11.2839 16.8 9.86089C16.8 7.67626 16.1048 5.88727 14.7144 4.49392C13.3248 3.10137 11.62 2.4051 9.6 2.4051C7.58 2.4051 5.8748 3.10137 4.4844 4.49392C3.0948 5.88727 2.4 7.67626 2.4 9.86089C2.4 11.2839 2.99 12.9122 4.17 14.7456C5.35 16.5799 7.16 18.6194 9.6 20.8642ZM9.6 23.6C9.44 23.6 9.28 23.5699 9.12 23.5098C8.96 23.4497 8.82 23.3695 8.7 23.2693C5.78 20.6838 3.6 18.2839 2.16 16.0696C0.72 13.8546 0 11.785 0 9.86089C0 6.85452 0.9652 4.45945 2.8956 2.67567C4.8252 0.891889 7.06 0 9.6 0C12.14 0 14.3748 0.891889 16.3044 2.67567C18.2348 4.45945 19.2 6.85452 19.2 9.86089C19.2 11.785 18.48 13.8546 17.04 16.0696C15.6 18.2839 13.42 20.6838 10.5 23.2693C10.38 23.3695 10.24 23.4497 10.08 23.5098C9.92 23.5699 9.76 23.6 9.6 23.6Z" fill="#F55D3E"/>
</svg>
