<svg width="32" height="36" viewBox="0 0 32 36" fill="none" xmlns="http://www.w3.org/2000/svg">
<path d="M7.75 16.625H24.25C24.6147 16.625 24.9644 16.4801 25.2223 16.2223C25.4801 15.9644 25.625 15.6147 25.625 15.25V7C25.625 6.63533 25.4801 6.28559 25.2223 6.02773C24.9644 5.76987 24.6147 5.625 24.25 5.625H7.75C7.38533 5.625 7.03559 5.76987 6.77773 6.02773C6.51987 6.28559 6.375 6.63533 6.375 7V15.25C6.375 15.6147 6.51987 15.9644 6.77773 16.2223C7.03559 16.4801 7.38533 16.625 7.75 16.625ZM9.125 8.375H22.875V13.875H9.125V8.375ZM28.375 0.125H3.625C2.89565 0.125 2.19618 0.414731 1.68046 0.930456C1.16473 1.44618 0.875 2.14565 0.875 2.875V33.125C0.875 33.8543 1.16473 34.5538 1.68046 35.0695C2.19618 35.5853 2.89565 35.875 3.625 35.875H28.375C29.1043 35.875 29.8038 35.5853 30.3195 35.0695C30.8353 34.5538 31.125 33.8543 31.125 33.125V2.875C31.125 2.14565 30.8353 1.44618 30.3195 0.930456C29.8038 0.414731 29.1043 0.125 28.375 0.125ZM28.375 33.125H3.625V2.875H28.375V33.125ZM18.0625 21.4375C18.0625 21.8454 17.9415 22.2442 17.7149 22.5834C17.4883 22.9225 17.1662 23.1869 16.7893 23.343C16.4124 23.4991 15.9977 23.54 15.5976 23.4604C15.1975 23.3808 14.83 23.1844 14.5416 22.8959C14.2531 22.6075 14.0567 22.24 13.9771 21.8399C13.8975 21.4398 13.9384 21.0251 14.0945 20.6482C14.2506 20.2713 14.515 19.9492 14.8541 19.7226C15.1933 19.496 15.5921 19.375 16 19.375C16.547 19.375 17.0716 19.5923 17.4584 19.9791C17.8452 20.3659 18.0625 20.8905 18.0625 21.4375ZM18.0625 28.3125C18.0625 28.7204 17.9415 29.1192 17.7149 29.4584C17.4883 29.7975 17.1662 30.0619 16.7893 30.218C16.4124 30.3741 15.9977 30.415 15.5976 30.3354C15.1975 30.2558 14.83 30.0594 14.5416 29.7709C14.2531 29.4825 14.0567 29.115 13.9771 28.7149C13.8975 28.3148 13.9384 27.9001 14.0945 27.5232C14.2506 27.1463 14.515 26.8242 14.8541 26.5976C15.1933 26.371 15.5921 26.25 16 26.25C16.547 26.25 17.0716 26.4673 17.4584 26.8541C17.8452 27.2409 18.0625 27.7655 18.0625 28.3125ZM11.1875 21.4375C11.1875 21.8454 11.0665 22.2442 10.8399 22.5834C10.6133 22.9225 10.2912 23.1869 9.91428 23.343C9.53741 23.4991 9.12271 23.54 8.72263 23.4604C8.32254 23.3808 7.95504 23.1844 7.66659 22.8959C7.37815 22.6075 7.18171 22.24 7.10213 21.8399C7.02255 21.4398 7.06339 21.0251 7.2195 20.6482C7.3756 20.2713 7.63996 19.9492 7.97914 19.7226C8.31831 19.496 8.71708 19.375 9.125 19.375C9.67201 19.375 10.1966 19.5923 10.5834 19.9791C10.9702 20.3659 11.1875 20.8905 11.1875 21.4375ZM11.1875 28.3125C11.1875 28.7204 11.0665 29.1192 10.8399 29.4584C10.6133 29.7975 10.2912 30.0619 9.91428 30.218C9.53741 30.3741 9.12271 30.415 8.72263 30.3354C8.32254 30.2558 7.95504 30.0594 7.66659 29.7709C7.37815 29.4825 7.18171 29.115 7.10213 28.7149C7.02255 28.3148 7.06339 27.9001 7.2195 27.5232C7.3756 27.1463 7.63996 26.8242 7.97914 26.5976C8.31831 26.371 8.71708 26.25 9.125 26.25C9.67201 26.25 10.1966 26.4673 10.5834 26.8541C10.9702 27.2409 11.1875 27.7655 11.1875 28.3125ZM24.9375 21.4375C24.9375 21.8454 24.8165 22.2442 24.5899 22.5834C24.3633 22.9225 24.0412 23.1869 23.6643 23.343C23.2874 23.4991 22.8727 23.54 22.4726 23.4604C22.0725 23.3808 21.705 23.1844 21.4166 22.8959C21.1281 22.6075 20.9317 22.24 20.8521 21.8399C20.7725 21.4398 20.8134 21.0251 20.9695 20.6482C21.1256 20.2713 21.39 19.9492 21.7291 19.7226C22.0683 19.496 22.4671 19.375 22.875 19.375C23.422 19.375 23.9466 19.5923 24.3334 19.9791C24.7202 20.3659 24.9375 20.8905 24.9375 21.4375ZM24.9375 28.3125C24.9375 28.7204 24.8165 29.1192 24.5899 29.4584C24.3633 29.7975 24.0412 30.0619 23.6643 30.218C23.2874 30.3741 22.8727 30.415 22.4726 30.3354C22.0725 30.2558 21.705 30.0594 21.4166 29.7709C21.1281 29.4825 20.9317 29.115 20.8521 28.7149C20.7725 28.3148 20.8134 27.9001 20.9695 27.5232C21.1256 27.1463 21.39 26.8242 21.7291 26.5976C22.0683 26.371 22.4671 26.25 22.875 26.25C23.422 26.25 23.9466 26.4673 24.3334 26.8541C24.7202 27.2409 24.9375 27.7655 24.9375 28.3125Z" fill="#252525"/>
</svg>
