<svg width="30" height="30" viewBox="0 0 30 30" fill="none" xmlns="http://www.w3.org/2000/svg">
<path d="M15 3.81683C15.5056 3.81683 16.0062 3.91641 16.4733 4.10989C16.9404 4.30337 17.3648 4.58696 17.7223 4.94447C18.0798 5.30197 18.3634 5.7264 18.5569 6.1935C18.7504 6.6606 18.85 7.16124 18.85 7.66683C18.85 8.17242 18.7504 8.67306 18.5569 9.14016C18.3634 9.60727 18.0798 10.0317 17.7223 10.3892C17.3648 10.7467 16.9404 11.0303 16.4733 11.2238C16.0062 11.4172 15.5056 11.5168 15 11.5168C13.9789 11.5168 12.9996 11.1112 12.2776 10.3892C11.5556 9.66718 11.15 8.68791 11.15 7.66683C11.15 6.64575 11.5556 5.66648 12.2776 4.94447C12.9996 4.22245 13.9789 3.81683 15 3.81683ZM15 20.3168C20.445 20.3168 26.1833 22.9935 26.1833 24.1668V26.1835H3.81665V24.1668C3.81665 22.9935 9.55498 20.3168 15 20.3168ZM15 0.333496C10.9483 0.333496 7.66665 3.61516 7.66665 7.66683C7.66665 11.7185 10.9483 15.0002 15 15.0002C19.0516 15.0002 22.3333 11.7185 22.3333 7.66683C22.3333 3.61516 19.0516 0.333496 15 0.333496ZM15 16.8335C10.105 16.8335 0.333313 19.2902 0.333313 24.1668V27.8335C0.333313 28.8418 1.15831 29.6668 2.16665 29.6668H27.8333C28.8416 29.6668 29.6666 28.8418 29.6666 27.8335V24.1668C29.6666 19.2902 19.895 16.8335 15 16.8335Z" fill="#252525"/>
</svg>
