<svg width="24" height="19" viewBox="0 0 24 19" fill="none" xmlns="http://www.w3.org/2000/svg">
<path d="M2.4 19.2C1.74 19.2 1.1752 18.9652 0.7056 18.4956C0.2352 18.0252 0 17.46 0 16.8V2.4C0 1.74 0.2352 1.1752 0.7056 0.7056C1.1752 0.2352 1.74 0 2.4 0H21.6C22.26 0 22.8252 0.2352 23.2956 0.7056C23.7652 1.1752 24 1.74 24 2.4V16.8C24 17.46 23.7652 18.0252 23.2956 18.4956C22.8252 18.9652 22.26 19.2 21.6 19.2H2.4ZM12 10.8L2.4 4.8V16.8H21.6V4.8L12 10.8ZM12 8.4L21.6 2.4H2.4L12 8.4ZM2.4 4.8V2.4V16.8V4.8Z" fill="#F55D3E"/>
</svg>
