<svg width="32" height="32" viewBox="0 0 32 32" fill="none" xmlns="http://www.w3.org/2000/svg">
<rect width="32" height="32" rx="5" fill="white"/>
<path d="M23.3714 8H24.8571C25.4883 8 26 8.53441 26 9.19364V22.8011C26 23.4603 25.4883 23.9947 24.8571 23.9947H23.3714V8Z" fill="black"/>
<path d="M15.4567 8.68776C15.7816 8.25368 16.2797 8 16.8073 8H19.6857L7.71429 23.9947H4L15.4567 8.68776Z" fill="black"/>
<path d="M11.0499 23.9947H8.34286L20.3143 8H22.8H22.8032V24H20.09L16.2309 20.9982C15.7247 20.6044 15.6199 19.8566 15.9969 19.3279L17.01 17.9072L20.2 20.3885V12.8862L12.4005 23.307C12.0756 23.7411 11.5774 23.9947 11.0499 23.9947Z" fill="black"/>
</svg>
