<svg width="20" height="24" viewBox="0 0 20 24" fill="none" xmlns="http://www.w3.org/2000/svg">
<path d="M10 12C10.6417 12 11.1912 11.7713 11.6485 11.314C12.1051 10.8575 12.3334 10.3083 12.3334 9.66668C12.3334 9.02501 12.1051 8.47551 11.6485 8.01818C11.1912 7.56162 10.6417 7.33334 10 7.33334C9.35835 7.33334 8.80924 7.56162 8.35269 8.01818C7.89535 8.47551 7.66669 9.02501 7.66669 9.66668C7.66669 10.3083 7.89535 10.8575 8.35269 11.314C8.80924 11.7713 9.35835 12 10 12ZM10 20.575C12.3722 18.3972 14.132 16.4186 15.2792 14.639C16.4264 12.8602 17 11.2806 17 9.90001C17 7.78057 16.3241 6.04495 14.9724 4.69318C13.6214 3.34218 11.9639 2.66668 10 2.66668C8.03613 2.66668 6.3783 3.34218 5.02652 4.69318C3.67552 6.04495 3.00002 7.78057 3.00002 9.90001C3.00002 11.2806 3.57363 12.8602 4.72085 14.639C5.86808 16.4186 7.6278 18.3972 10 20.575ZM10 23.6667C6.86947 21.0028 4.53146 18.5283 2.98602 16.2432C1.4398 13.9588 0.666687 11.8445 0.666687 9.90001C0.666687 6.98334 1.60508 4.65973 3.48185 2.92918C5.35785 1.19862 7.53058 0.333344 10 0.333344C12.4695 0.333344 14.6422 1.19862 16.5182 2.92918C18.395 4.65973 19.3334 6.98334 19.3334 9.90001C19.3334 11.8445 18.5606 13.9588 17.0152 16.2432C15.469 18.5283 13.1306 21.0028 10 23.6667Z" fill="#252525"/>
</svg>
