<svg width="243" height="49" viewBox="0 0 243 49" fill="none" xmlns="http://www.w3.org/2000/svg">
<g clip-path="url(#clip0_214_31)">
<path d="M96.7893 15.0559L96.9158 17.7297H96.5906C96.3979 16.8625 96.0998 16.3115 95.6963 16.0767C95.2988 15.8418 94.5882 15.7244 93.5645 15.7244H91.5049V20.5752H91.9927C93.4922 20.5752 94.5942 20.6715 95.2988 20.8643C96.0034 21.0509 96.5755 21.4123 97.0151 21.9482C97.4608 22.4842 97.6836 23.1286 97.6836 23.8813C97.6836 24.7907 97.3464 25.5886 96.6719 26.2751C95.9974 26.9617 94.8351 27.3049 93.1851 27.3049H88V26.9707C88.7588 26.9466 89.2436 26.8262 89.4543 26.6094C89.6651 26.3926 89.7705 25.8807 89.7705 25.0737V17.2871C89.7705 16.6668 89.7253 16.2483 89.635 16.0315C89.5507 15.8147 89.4092 15.6611 89.2104 15.5708C89.0117 15.4805 88.6444 15.4202 88.1084 15.3901V15.0559H96.7893ZM91.5049 26.5732C92.0348 26.6576 92.4473 26.6997 92.7424 26.6997C93.4832 26.6997 94.1516 26.4528 94.7478 25.959C95.35 25.4652 95.6511 24.7817 95.6511 23.9084C95.6511 23.0051 95.338 22.3367 94.7117 21.9031C94.0854 21.4635 93.2904 21.2437 92.3269 21.2437C92.0559 21.2437 91.7819 21.2677 91.5049 21.3159V26.5732Z" fill="black"/>
<path d="M97.8823 15.0559H102.851V15.3901C101.977 15.4263 101.541 15.6611 101.541 16.0947C101.541 16.4019 101.863 17.1185 102.507 18.2446L105.181 22.9419L107.132 18.2446C107.542 17.257 107.747 16.5946 107.747 16.2573C107.747 15.7876 107.367 15.4985 106.608 15.3901V15.0559H110.448V15.3901C109.544 15.4985 108.858 16.1128 108.388 17.2329L106.048 22.7974C105.44 24.2246 104.946 25.2393 104.567 25.8416C104.188 26.4438 103.772 26.8864 103.32 27.1694C102.875 27.4465 102.411 27.585 101.929 27.585C101.514 27.585 101.161 27.4946 100.872 27.314C100.589 27.1393 100.448 26.8984 100.448 26.5913C100.448 26.3685 100.523 26.1848 100.674 26.0403C100.824 25.8897 101.029 25.8145 101.288 25.8145C101.541 25.8145 101.842 25.9168 102.191 26.1216C102.426 26.248 102.604 26.3113 102.724 26.3113C103.2 26.3113 103.733 25.8175 104.323 24.8298L99.8787 17.0161C99.5655 16.4681 99.2674 16.0797 98.9844 15.8508C98.7074 15.622 98.34 15.4684 97.8823 15.3901V15.0559Z" fill="black"/>
<path d="M118.297 20.521L120.926 24.4414C121.655 25.5254 122.194 26.2119 122.543 26.501C122.898 26.784 123.347 26.9406 123.889 26.9707V27.3049H118.632V26.9707C118.981 26.9647 119.24 26.9285 119.408 26.8623C119.535 26.8081 119.637 26.7268 119.716 26.6184C119.8 26.504 119.842 26.3896 119.842 26.2751C119.842 26.1366 119.815 25.9981 119.761 25.8596C119.719 25.7572 119.553 25.4923 119.264 25.0647L117.186 21.9211L114.621 25.2092C114.35 25.5585 114.187 25.7934 114.133 25.9138C114.079 26.0282 114.052 26.1487 114.052 26.2751C114.052 26.4679 114.133 26.6274 114.296 26.7539C114.458 26.8804 114.768 26.9526 115.226 26.9707V27.3049H110.881V26.9707C111.188 26.9406 111.453 26.8774 111.676 26.781C112.049 26.6244 112.405 26.4137 112.742 26.1487C113.079 25.8837 113.465 25.4772 113.898 24.9292L116.789 21.2798L114.377 17.7478C113.721 16.7903 113.163 16.164 112.706 15.8689C112.248 15.5678 111.721 15.4082 111.125 15.3901V15.0559H116.789V15.3901C116.307 15.4082 115.976 15.4865 115.795 15.625C115.621 15.7635 115.533 15.9171 115.533 16.0857C115.533 16.3085 115.678 16.6337 115.967 17.0613L117.846 19.8706L120.023 17.1155C120.276 16.7903 120.429 16.5675 120.483 16.447C120.544 16.3266 120.574 16.2031 120.574 16.0767C120.574 15.9502 120.538 15.8388 120.465 15.7424C120.375 15.616 120.261 15.5286 120.122 15.4805C119.984 15.4263 119.698 15.3962 119.264 15.3901V15.0559H123.609V15.3901C123.266 15.4082 122.986 15.4624 122.769 15.5527C122.444 15.6912 122.146 15.8779 121.875 16.1128C121.604 16.3477 121.221 16.7812 120.727 17.4136L118.297 20.521Z" fill="black"/>
<path d="M134.277 15.0559L134.322 17.9194H133.97C133.946 17.3413 133.822 16.8776 133.6 16.5283C133.377 16.179 133.103 15.9592 132.778 15.8689C132.458 15.7725 131.995 15.7244 131.386 15.7244H127.954V25.0737C127.954 25.8807 128.056 26.3926 128.261 26.6094C128.472 26.8262 128.954 26.9466 129.706 26.9707V27.3049H124.449V26.9707C125.208 26.9466 125.693 26.8262 125.903 26.6094C126.114 26.3926 126.219 25.8807 126.219 25.0737V17.2871C126.219 16.4801 126.114 15.9683 125.903 15.7515C125.693 15.5347 125.208 15.4142 124.449 15.3901V15.0559H134.277Z" fill="black"/>
<path d="M141.251 23.2039H136.508L135.677 25.137C135.472 25.6127 135.37 25.968 135.37 26.2029C135.37 26.3896 135.457 26.5552 135.632 26.6997C135.813 26.8382 136.198 26.9285 136.788 26.9707V27.3049H132.931V26.9707C133.443 26.8804 133.774 26.7629 133.925 26.6184C134.232 26.3293 134.572 25.7422 134.946 24.8569L139.254 14.7759H139.571L143.834 24.9653C144.177 25.7843 144.488 26.3173 144.765 26.5642C145.048 26.8051 145.439 26.9406 145.939 26.9707V27.3049H141.106V26.9707C141.594 26.9466 141.922 26.8653 142.091 26.7268C142.265 26.5883 142.353 26.4197 142.353 26.2209C142.353 25.956 142.232 25.5374 141.991 24.9653L141.251 23.2039ZM140.998 22.5354L138.92 17.5852L136.788 22.5354H140.998Z" fill="black"/>
<path d="M154.864 15.7244H151.07V19.157C151.07 22.6197 150.772 24.869 150.176 25.9048C149.579 26.9346 148.757 27.4495 147.709 27.4495C147.264 27.4495 146.921 27.3411 146.68 27.1243C146.439 26.9014 146.318 26.6455 146.318 26.3564C146.318 26.1336 146.397 25.9409 146.553 25.7783C146.71 25.6157 146.899 25.5344 147.122 25.5344C147.309 25.5344 147.523 25.6248 147.764 25.8054C148.035 26.0042 148.279 26.1035 148.495 26.1035C149.019 26.1035 149.447 25.6699 149.778 24.8027C150.109 23.9295 150.275 22.2795 150.275 19.8525V17.2871C150.275 16.4801 150.17 15.9683 149.959 15.7515C149.748 15.5347 149.263 15.4142 148.504 15.3901V15.0559H158.36V15.3901C157.601 15.4142 157.116 15.5347 156.905 15.7515C156.694 15.9683 156.589 16.4801 156.589 17.2871V25.0737C156.589 25.8807 156.694 26.3926 156.905 26.6094C157.116 26.8262 157.601 26.9466 158.36 26.9707V27.3049H153.093V26.9707C153.852 26.9466 154.337 26.8262 154.548 26.6094C154.758 26.3926 154.864 25.8807 154.864 25.0737V15.7244Z" fill="black"/>
<path d="M169.416 15.0559L169.552 17.9285H169.208C169.142 17.4226 169.052 17.0613 168.938 16.8445C168.751 16.4952 168.501 16.2393 168.188 16.0767C167.881 15.908 167.474 15.8237 166.968 15.8237H165.243V25.1821C165.243 25.9349 165.324 26.4046 165.487 26.5913C165.716 26.8442 166.068 26.9707 166.544 26.9707H166.968V27.3049H161.774V26.9707H162.208C162.726 26.9707 163.093 26.8141 163.31 26.501C163.442 26.3083 163.509 25.8687 163.509 25.1821V15.8237H162.036C161.464 15.8237 161.058 15.8659 160.817 15.9502C160.504 16.0646 160.236 16.2844 160.013 16.6096C159.79 16.9348 159.657 17.3744 159.615 17.9285H159.272L159.417 15.0559H169.416Z" fill="black"/>
<path d="M173.888 15.7244V20.5662H176.58C177.278 20.5662 177.745 20.4608 177.98 20.25C178.293 19.973 178.468 19.4852 178.504 18.7866H178.838V23.0503H178.504C178.419 22.4541 178.335 22.0717 178.251 21.9031C178.142 21.6923 177.965 21.5267 177.718 21.4062C177.471 21.2858 177.091 21.2256 176.58 21.2256H173.888V25.2634C173.888 25.8054 173.912 26.1366 173.96 26.2571C174.008 26.3715 174.092 26.4648 174.213 26.5371C174.333 26.6034 174.562 26.6365 174.899 26.6365H176.977C177.67 26.6365 178.172 26.5883 178.486 26.4919C178.799 26.3956 179.1 26.2059 179.389 25.9229C179.762 25.5495 180.145 24.9864 180.536 24.2336H180.897L179.841 27.3049H170.401V26.9707H170.834C171.124 26.9707 171.398 26.9014 171.656 26.7629C171.849 26.6666 171.979 26.5221 172.045 26.3293C172.117 26.1366 172.153 25.7422 172.153 25.146V17.1877C172.153 16.4109 172.075 15.9321 171.918 15.7515C171.702 15.5106 171.34 15.3901 170.834 15.3901H170.401V15.0559H179.841L179.976 17.7388H179.624C179.497 17.0944 179.356 16.6518 179.199 16.4109C179.049 16.17 178.823 15.9863 178.522 15.8599C178.281 15.7695 177.856 15.7244 177.248 15.7244H173.888Z" fill="black"/>
<path d="M185.125 21.5688V25.137C185.125 25.9078 185.209 26.3866 185.378 26.5732C185.607 26.8382 185.953 26.9707 186.417 26.9707H186.886V27.3049H181.638V26.9707H182.099C182.617 26.9707 182.987 26.8021 183.21 26.4648C183.33 26.2782 183.391 25.8355 183.391 25.137V17.2239C183.391 16.453 183.309 15.9743 183.147 15.7876C182.912 15.5226 182.563 15.3901 182.099 15.3901H181.638V15.0559H186.128C187.224 15.0559 188.088 15.1703 188.72 15.3992C189.353 15.622 189.885 16.0014 190.319 16.5374C190.753 17.0733 190.969 17.7087 190.969 18.4434C190.969 19.443 190.638 20.256 189.976 20.8823C189.319 21.5086 188.389 21.8218 187.185 21.8218C186.889 21.8218 186.57 21.8007 186.227 21.7585C185.884 21.7164 185.516 21.6532 185.125 21.5688ZM185.125 21.054C185.444 21.1142 185.727 21.1593 185.974 21.1895C186.221 21.2196 186.432 21.2346 186.606 21.2346C187.233 21.2346 187.772 20.9937 188.223 20.512C188.681 20.0242 188.91 19.3949 188.91 18.624C188.91 18.0941 188.802 17.6033 188.585 17.1516C188.368 16.6939 188.061 16.3537 187.663 16.1309C187.266 15.902 186.814 15.7876 186.308 15.7876C186.001 15.7876 185.607 15.8448 185.125 15.9592V21.054Z" fill="black"/>
<path d="M203.002 14.7759L203.282 18.9402H203.002C202.628 17.6936 202.095 16.7963 201.403 16.2483C200.71 15.7003 199.879 15.4263 198.91 15.4263C198.097 15.4263 197.362 15.634 196.706 16.0496C196.049 16.4591 195.531 17.1155 195.152 18.0188C194.778 18.9221 194.592 20.0452 194.592 21.3882C194.592 22.4963 194.769 23.4568 195.125 24.2698C195.48 25.0828 196.013 25.7061 196.724 26.1396C197.44 26.5732 198.256 26.79 199.172 26.79C199.967 26.79 200.668 26.6214 201.276 26.2842C201.885 25.9409 202.553 25.2634 203.282 24.2517L203.562 24.4324C202.948 25.5224 202.231 26.3203 201.412 26.8262C200.593 27.332 199.62 27.585 198.494 27.585C196.465 27.585 194.893 26.8322 193.779 25.3267C192.948 24.2065 192.532 22.8877 192.532 21.3701C192.532 20.1476 192.806 19.0245 193.354 18.0007C193.902 16.977 194.655 16.1851 195.613 15.625C196.576 15.0589 197.627 14.7759 198.765 14.7759C199.65 14.7759 200.524 14.9927 201.385 15.4263C201.638 15.5588 201.818 15.625 201.927 15.625C202.089 15.625 202.231 15.5678 202.351 15.4534C202.508 15.2908 202.619 15.0649 202.686 14.7759H203.002Z" fill="black"/>
<path d="M216.479 26.9707V27.3049H213.318C212.974 26.7569 212.252 25.7241 211.15 24.2065C210.048 22.6829 209.376 21.8398 209.135 21.6772C208.894 21.5086 208.53 21.4213 208.042 21.4153V25.0737C208.042 25.8807 208.145 26.3926 208.349 26.6094C208.56 26.8262 209.048 26.9466 209.813 26.9707V27.3049H204.537V26.9707C205.29 26.9466 205.772 26.8292 205.983 26.6184C206.199 26.4016 206.308 25.8867 206.308 25.0737V17.2871C206.308 16.4801 206.202 15.9683 205.992 15.7515C205.781 15.5347 205.296 15.4142 204.537 15.3901V15.0559H209.813V15.3901C209.048 15.4142 208.56 15.5347 208.349 15.7515C208.145 15.9683 208.042 16.4801 208.042 17.2871V20.7017C208.699 20.6956 209.153 20.6535 209.406 20.5752C209.659 20.4909 209.942 20.3042 210.255 20.0151C210.575 19.7261 210.824 19.4159 211.005 19.0847C211.192 18.7475 211.43 18.1965 211.719 17.4316C211.99 16.715 212.21 16.2182 212.378 15.9412C212.553 15.6581 212.83 15.4172 213.209 15.2185C213.589 15.0138 214.04 14.9114 214.564 14.9114C215.492 14.9114 215.955 15.2366 215.955 15.887C215.955 16.1158 215.862 16.3145 215.675 16.4832C215.495 16.6518 215.287 16.7361 215.052 16.7361C214.883 16.7361 214.6 16.6397 214.203 16.447C213.854 16.2724 213.61 16.1851 213.471 16.1851C213.278 16.1851 213.113 16.2874 212.974 16.4922C212.836 16.6909 212.616 17.2028 212.315 18.0278C211.737 19.5695 210.999 20.5481 210.102 20.9636C210.65 21.06 211.409 21.8097 212.378 23.2129C213.408 24.7004 214.164 25.694 214.646 26.1938C215.127 26.6937 215.739 26.9526 216.479 26.9707Z" fill="black"/>
<path d="M226.063 17.0793C226.063 16.3446 225.943 15.8809 225.702 15.6882C225.467 15.4895 224.989 15.3901 224.266 15.3901V15.0559H229.568V15.3901C228.81 15.4142 228.325 15.5347 228.114 15.7515C227.903 15.9683 227.798 16.4801 227.798 17.2871V25.0737C227.798 25.8807 227.903 26.3926 228.114 26.6094C228.325 26.8262 228.81 26.9466 229.568 26.9707V27.3049H224.266V26.9707C225.043 26.9466 225.537 26.8262 225.747 26.6094C225.958 26.3866 226.063 25.8747 226.063 25.0737V18.0459L220.382 25.3267C220.388 25.8506 220.421 26.2029 220.481 26.3835C220.547 26.5582 220.695 26.6967 220.924 26.7991C221.158 26.9014 221.571 26.9587 222.161 26.9707V27.3049H216.877V26.9707C217.635 26.9466 218.12 26.8262 218.331 26.6094C218.542 26.3926 218.647 25.8807 218.647 25.0737V17.2871C218.647 16.4801 218.542 15.9683 218.331 15.7515C218.12 15.5347 217.635 15.4142 216.877 15.3901V15.0559H222.161V15.3901C221.396 15.4142 220.909 15.5347 220.698 15.7515C220.487 15.9683 220.382 16.4801 220.382 17.2871V24.342L226.063 17.0793Z" fill="black"/>
<path d="M239.378 11C239.565 11 239.725 11.0813 239.857 11.2439C239.996 11.4005 240.065 11.5872 240.065 11.804C240.065 12.3399 239.788 12.8006 239.234 13.186C238.68 13.5715 237.801 13.7642 236.596 13.7642C235.386 13.7642 234.503 13.5715 233.949 13.186C233.401 12.8006 233.127 12.3399 233.127 11.804C233.127 11.5932 233.194 11.4065 233.326 11.2439C233.459 11.0813 233.624 11 233.823 11C234.022 11 234.19 11.0783 234.329 11.2349C234.473 11.3854 234.675 11.7227 234.934 12.2466C235.295 12.9933 235.849 13.3667 236.596 13.3667C237.337 13.3667 237.891 12.9933 238.258 12.2466C238.511 11.7166 238.707 11.3764 238.845 11.2258C238.984 11.0753 239.162 11 239.378 11ZM239.433 17.0793C239.433 16.3446 239.312 15.8809 239.071 15.6882C238.836 15.4895 238.358 15.3901 237.635 15.3901V15.0559H242.938V15.3901C242.179 15.4142 241.694 15.5347 241.483 15.7515C241.272 15.9683 241.167 16.4801 241.167 17.2871V25.0737C241.167 25.8807 241.272 26.3926 241.483 26.6094C241.694 26.8262 242.179 26.9466 242.938 26.9707V27.3049H237.635V26.9707C238.412 26.9466 238.906 26.8262 239.116 26.6094C239.327 26.3866 239.433 25.8747 239.433 25.0737V18.0459L233.751 25.3267C233.757 25.8506 233.79 26.2029 233.85 26.3835C233.916 26.5582 234.064 26.6967 234.293 26.7991C234.528 26.9014 234.94 26.9587 235.53 26.9707V27.3049H230.246V26.9707C231.005 26.9466 231.489 26.8262 231.7 26.6094C231.911 26.3926 232.016 25.8807 232.016 25.0737V17.2871C232.016 16.4801 231.911 15.9683 231.7 15.7515C231.489 15.5347 231.005 15.4142 230.246 15.3901V15.0559H235.53V15.3901C234.765 15.4142 234.278 15.5347 234.067 15.7515C233.856 15.9683 233.751 16.4801 233.751 17.2871V24.342L239.433 17.0793Z" fill="black"/>
<path d="M127.497 38.7832H124.934L124.484 39.8281C124.374 40.0853 124.318 40.2773 124.318 40.4043C124.318 40.5052 124.366 40.5947 124.46 40.6729C124.558 40.7477 124.766 40.7965 125.085 40.8193V41H123V40.8193C123.277 40.7705 123.456 40.707 123.537 40.6289C123.703 40.4727 123.887 40.1553 124.089 39.6768L126.418 34.2275H126.589L128.894 39.7354C129.079 40.1781 129.247 40.4661 129.396 40.5996C129.549 40.7298 129.761 40.8031 130.031 40.8193V41H127.419V40.8193C127.683 40.8063 127.86 40.7624 127.951 40.6875C128.046 40.6126 128.093 40.5215 128.093 40.4141C128.093 40.2708 128.028 40.0446 127.897 39.7354L127.497 38.7832ZM127.36 38.4219L126.237 35.7461L125.085 38.4219H127.36Z" fill="black"/>
<path d="M131.696 34.3789H134.382V34.5596C133.91 34.5791 133.674 34.7061 133.674 34.9404C133.674 35.1064 133.848 35.4938 134.196 36.1025L135.642 38.6416L136.696 36.1025C136.918 35.5687 137.029 35.2106 137.029 35.0283C137.029 34.7744 136.823 34.6182 136.413 34.5596V34.3789H138.488V34.5596C138 34.6182 137.629 34.9502 137.375 35.5557L136.111 38.5635C135.782 39.335 135.515 39.8835 135.31 40.209C135.105 40.5345 134.88 40.7738 134.636 40.9268C134.395 41.0765 134.144 41.1514 133.884 41.1514C133.659 41.1514 133.469 41.1025 133.313 41.0049C133.16 40.9105 133.083 40.7803 133.083 40.6143C133.083 40.4938 133.124 40.3945 133.205 40.3164C133.287 40.235 133.397 40.1943 133.537 40.1943C133.674 40.1943 133.837 40.2497 134.026 40.3604C134.153 40.4287 134.249 40.4629 134.314 40.4629C134.571 40.4629 134.859 40.196 135.178 39.6621L132.776 35.4385C132.606 35.1423 132.445 34.9323 132.292 34.8086C132.142 34.6849 131.944 34.6019 131.696 34.5596V34.3789Z" fill="black"/>
<path d="M146.736 34.3789L146.809 35.9316H146.623C146.588 35.6582 146.539 35.4629 146.477 35.3457C146.376 35.1569 146.241 35.0186 146.072 34.9307C145.906 34.8395 145.686 34.7939 145.413 34.7939H144.48V39.8525C144.48 40.2594 144.524 40.5133 144.612 40.6143C144.735 40.751 144.926 40.8193 145.183 40.8193H145.413V41H142.605V40.8193H142.839C143.119 40.8193 143.318 40.7347 143.435 40.5654C143.507 40.4613 143.542 40.2236 143.542 39.8525V34.7939H142.746C142.437 34.7939 142.218 34.8167 142.087 34.8623C141.918 34.9242 141.773 35.043 141.653 35.2188C141.532 35.3945 141.461 35.6322 141.438 35.9316H141.252L141.33 34.3789H146.736Z" fill="black"/>
<path d="M155.383 34.2275L155.535 36.4785H155.383C155.182 35.8047 154.893 35.3197 154.519 35.0234C154.145 34.7272 153.696 34.5791 153.171 34.5791C152.732 34.5791 152.335 34.6914 151.98 34.916C151.625 35.1374 151.345 35.4922 151.14 35.9805C150.938 36.4688 150.837 37.0758 150.837 37.8018C150.837 38.4007 150.934 38.9199 151.126 39.3594C151.318 39.7988 151.606 40.1357 151.99 40.3701C152.377 40.6045 152.818 40.7217 153.313 40.7217C153.743 40.7217 154.122 40.6305 154.451 40.4482C154.78 40.2627 155.141 39.8965 155.535 39.3496L155.686 39.4473C155.354 40.0365 154.967 40.4678 154.524 40.7412C154.081 41.0146 153.556 41.1514 152.947 41.1514C151.85 41.1514 151 40.7445 150.398 39.9307C149.949 39.3252 149.724 38.6123 149.724 37.792C149.724 37.1312 149.872 36.5241 150.169 35.9707C150.465 35.4173 150.872 34.9893 151.389 34.6865C151.91 34.3805 152.478 34.2275 153.093 34.2275C153.572 34.2275 154.044 34.3447 154.509 34.5791C154.646 34.6507 154.744 34.6865 154.802 34.6865C154.89 34.6865 154.967 34.6556 155.032 34.5938C155.116 34.5059 155.177 34.3838 155.213 34.2275H155.383Z" fill="black"/>
<path d="M161.99 34.2275C162.849 34.2275 163.593 34.5547 164.221 35.209C164.853 35.86 165.169 36.6738 165.169 37.6504C165.169 38.6562 164.851 39.4912 164.217 40.1553C163.582 40.8193 162.814 41.1514 161.912 41.1514C161 41.1514 160.234 40.8275 159.612 40.1797C158.994 39.5319 158.684 38.6937 158.684 37.665C158.684 36.6136 159.042 35.7559 159.759 35.0918C160.38 34.5156 161.124 34.2275 161.99 34.2275ZM161.897 34.584C161.305 34.584 160.83 34.8037 160.471 35.2432C160.026 35.79 159.803 36.5908 159.803 37.6455C159.803 38.7262 160.034 39.5579 160.496 40.1406C160.851 40.5833 161.319 40.8047 161.902 40.8047C162.524 40.8047 163.037 40.5622 163.44 40.0771C163.847 39.5921 164.051 38.8271 164.051 37.7822C164.051 36.6494 163.828 35.8047 163.382 35.248C163.024 34.8053 162.529 34.584 161.897 34.584Z" fill="black"/>
<path d="M169.91 37.8994V39.8281C169.91 40.2448 169.956 40.5036 170.047 40.6045C170.171 40.7477 170.358 40.8193 170.608 40.8193H170.862V41H168.025V40.8193H168.274C168.554 40.8193 168.755 40.7282 168.875 40.5459C168.94 40.445 168.973 40.2057 168.973 39.8281V35.5508C168.973 35.1341 168.929 34.8753 168.841 34.7744C168.714 34.6312 168.525 34.5596 168.274 34.5596H168.025V34.3789H170.452C171.045 34.3789 171.512 34.4408 171.854 34.5645C172.195 34.6849 172.483 34.89 172.718 35.1797C172.952 35.4694 173.069 35.8128 173.069 36.21C173.069 36.7503 172.89 37.1898 172.532 37.5283C172.177 37.8669 171.674 38.0361 171.023 38.0361C170.864 38.0361 170.691 38.0247 170.506 38.002C170.32 37.9792 170.122 37.945 169.91 37.8994ZM169.91 37.6211C170.083 37.6536 170.236 37.6781 170.369 37.6943C170.503 37.7106 170.617 37.7188 170.711 37.7188C171.049 37.7188 171.341 37.5885 171.585 37.3281C171.832 37.0645 171.956 36.7243 171.956 36.3076C171.956 36.0212 171.897 35.7559 171.78 35.5117C171.663 35.2643 171.497 35.0804 171.282 34.96C171.067 34.8363 170.823 34.7744 170.55 34.7744C170.384 34.7744 170.171 34.8053 169.91 34.8672V37.6211Z" fill="black"/>
<path d="M181.873 34.2275L182.025 36.4785H181.873C181.671 35.8047 181.383 35.3197 181.009 35.0234C180.635 34.7272 180.185 34.5791 179.661 34.5791C179.222 34.5791 178.825 34.6914 178.47 34.916C178.115 35.1374 177.835 35.4922 177.63 35.9805C177.428 36.4688 177.327 37.0758 177.327 37.8018C177.327 38.4007 177.423 38.9199 177.615 39.3594C177.807 39.7988 178.096 40.1357 178.48 40.3701C178.867 40.6045 179.308 40.7217 179.803 40.7217C180.233 40.7217 180.612 40.6305 180.941 40.4482C181.269 40.2627 181.631 39.8965 182.025 39.3496L182.176 39.4473C181.844 40.0365 181.457 40.4678 181.014 40.7412C180.571 41.0146 180.045 41.1514 179.437 41.1514C178.34 41.1514 177.49 40.7445 176.888 39.9307C176.439 39.3252 176.214 38.6123 176.214 37.792C176.214 37.1312 176.362 36.5241 176.658 35.9707C176.955 35.4173 177.362 34.9893 177.879 34.6865C178.4 34.3805 178.968 34.2275 179.583 34.2275C180.062 34.2275 180.534 34.3447 180.999 34.5791C181.136 34.6507 181.234 34.6865 181.292 34.6865C181.38 34.6865 181.457 34.6556 181.522 34.5938C181.606 34.5059 181.667 34.3838 181.702 34.2275H181.873Z" fill="black"/>
<path d="M189.969 35.4727C189.969 35.0755 189.904 34.8249 189.774 34.7207C189.647 34.6133 189.388 34.5596 188.997 34.5596V34.3789H191.864V34.5596C191.454 34.5726 191.191 34.6377 191.078 34.7549C190.964 34.8721 190.907 35.1488 190.907 35.585V39.7939C190.907 40.2301 190.964 40.5068 191.078 40.624C191.191 40.7412 191.454 40.8063 191.864 40.8193V41H188.997V40.8193C189.417 40.8063 189.684 40.7412 189.798 40.624C189.912 40.5036 189.969 40.2269 189.969 39.7939V35.9951L186.898 39.9307C186.901 40.2139 186.919 40.4043 186.952 40.502C186.987 40.5964 187.067 40.6712 187.191 40.7266C187.318 40.7819 187.541 40.8128 187.86 40.8193V41H185.003V40.8193C185.413 40.8063 185.676 40.7412 185.789 40.624C185.903 40.5068 185.96 40.2301 185.96 39.7939V35.585C185.96 35.1488 185.903 34.8721 185.789 34.7549C185.676 34.6377 185.413 34.5726 185.003 34.5596V34.3789H187.86V34.5596C187.446 34.5726 187.183 34.6377 187.069 34.7549C186.955 34.8721 186.898 35.1488 186.898 35.585V39.3984L189.969 35.4727Z" fill="black"/>
<path d="M196.405 37.4502H199.481V35.5557C199.481 35.2171 199.46 34.9941 199.418 34.8867C199.385 34.8053 199.317 34.7354 199.213 34.6768C199.073 34.5986 198.924 34.5596 198.768 34.5596H198.534V34.3789H201.366V34.5596H201.131C200.975 34.5596 200.827 34.597 200.687 34.6719C200.583 34.724 200.511 34.8037 200.472 34.9111C200.436 35.0153 200.419 35.2301 200.419 35.5557V39.8281C200.419 40.1634 200.44 40.3848 200.482 40.4922C200.515 40.5736 200.581 40.6436 200.682 40.7021C200.825 40.7803 200.975 40.8193 201.131 40.8193H201.366V41H198.534V40.8193H198.768C199.038 40.8193 199.235 40.7396 199.359 40.5801C199.44 40.4759 199.481 40.2253 199.481 39.8281V37.8115H196.405V39.8281C196.405 40.1634 196.426 40.3848 196.468 40.4922C196.501 40.5736 196.569 40.6436 196.673 40.7021C196.813 40.7803 196.962 40.8193 197.118 40.8193H197.357V41H194.52V40.8193H194.754C195.028 40.8193 195.227 40.7396 195.35 40.5801C195.428 40.4759 195.467 40.2253 195.467 39.8281V35.5557C195.467 35.2171 195.446 34.9941 195.404 34.8867C195.371 34.8053 195.305 34.7354 195.204 34.6768C195.06 34.5986 194.911 34.5596 194.754 34.5596H194.52V34.3789H197.357V34.5596H197.118C196.962 34.5596 196.813 34.597 196.673 34.6719C196.573 34.724 196.503 34.8037 196.463 34.9111C196.424 35.0153 196.405 35.2301 196.405 35.5557V37.4502Z" fill="black"/>
<path d="M209.369 34.3789L209.393 35.9268H209.203C209.19 35.6143 209.123 35.3636 209.003 35.1748C208.882 34.986 208.734 34.8672 208.558 34.8184C208.386 34.7663 208.135 34.7402 207.806 34.7402H205.951V39.7939C205.951 40.2301 206.006 40.5068 206.117 40.624C206.231 40.7412 206.491 40.8063 206.898 40.8193V41H204.056V40.8193C204.467 40.8063 204.729 40.7412 204.843 40.624C204.957 40.5068 205.013 40.2301 205.013 39.7939V35.585C205.013 35.1488 204.957 34.8721 204.843 34.7549C204.729 34.6377 204.467 34.5726 204.056 34.5596V34.3789H209.369Z" fill="black"/>
<path d="M60.9197 0H65.592C67.577 0 69.1861 1.60913 69.1861 3.59408V44.5666C69.1861 46.5516 67.577 48.1607 65.592 48.1607H60.9197V0Z" fill="black"/>
<path d="M36.0292 2.07088C37.0509 0.763835 38.6175 0 40.2766 0H49.3288L11.6808 48.1607H0L36.0292 2.07088Z" fill="black"/>
<path d="M22.1706 48.1607H13.6575L51.3055 0H59.1227H59.1329V48.1766H50.6001L38.4639 39.138C36.872 37.9524 36.5426 35.7007 37.7282 34.1087L40.9142 29.8309L50.9461 37.3023V14.7126L26.418 46.0898C25.3963 47.3969 23.8297 48.1607 22.1706 48.1607Z" fill="black"/>
</g>
<defs>
<clipPath id="clip0_214_31">
<rect width="242.938" height="48.1766" fill="white"/>
</clipPath>
</defs>
</svg>
