<svg width="23" height="23" viewBox="0 0 23 23" fill="none" xmlns="http://www.w3.org/2000/svg">
<path d="M16.25 22.5C7.56562 22.5 0.5 15.4344 0.5 6.75001C0.503284 5.26038 1.04739 3.82264 2.03117 2.70407C3.01494 1.58551 4.37143 0.862248 5.84844 0.668759C6.22496 0.627011 6.60499 0.706284 6.93341 0.895081C7.26184 1.08388 7.52159 1.37238 7.675 1.71876L9.87344 6.84845C9.98747 7.11471 10.0332 7.40524 10.0065 7.69366C9.97972 7.98208 9.88136 8.25925 9.72031 8.50001L7.90469 11.2781C8.72684 12.9466 10.0815 14.2936 11.7547 15.1063L14.5 13.2797C14.7405 13.1176 15.0184 13.0194 15.3074 12.9946C15.5963 12.9697 15.8869 13.0189 16.1516 13.1375L21.2812 15.325C21.6276 15.4784 21.9161 15.7382 22.1049 16.0666C22.2937 16.395 22.373 16.7751 22.3313 17.1516C22.1378 18.6286 21.4145 19.9851 20.2959 20.9688C19.1774 21.9526 17.7396 22.4967 16.25 22.5ZM6.06719 2.40782C5.01166 2.54351 4.04179 3.05927 3.33915 3.85855C2.63651 4.65782 2.2493 5.6858 2.25 6.75001C2.2529 10.4622 3.72882 14.0214 6.3537 16.6463C8.97859 19.2712 12.5379 20.7471 16.25 20.75C17.3142 20.7507 18.3422 20.3635 19.1415 19.6609C19.9407 18.9582 20.4565 17.9883 20.5922 16.9328L15.4625 14.7453L12.7281 16.5719C12.4765 16.7382 12.1862 16.8367 11.8853 16.8578C11.5845 16.8789 11.2833 16.8218 11.0109 16.6922C8.97322 15.7065 7.32492 14.0659 6.32969 12.0328C6.19847 11.7614 6.13959 11.4607 6.15875 11.1599C6.17791 10.859 6.27447 10.5682 6.43906 10.3156L8.26562 7.53751L6.06719 2.40782Z" fill="#252525"/>
</svg>
