<svg width="139" height="202" viewBox="0 0 139 202" fill="none" xmlns="http://www.w3.org/2000/svg">
<path opacity="0.2" d="M27.5667 10.3035C10.6307 21.1303 1.7463 39.4525 0.635742 64.9926H39.7828C39.7828 57.4972 42.0039 50.2793 46.4461 43.3391C50.8883 36.3988 58.3845 33.0675 68.6571 33.0675C79.485 33.0675 86.7036 35.8436 90.8682 41.3958C94.7552 46.948 96.6986 53.333 96.6986 60.2732C96.6986 66.1031 95.0328 71.6553 91.4235 76.6522C89.2024 79.4283 86.7036 82.2044 83.372 84.7029L73.6546 92.1983C63.9373 99.9714 57.8293 106.634 55.3305 112.464C53.1094 118.294 51.7212 128.843 51.1659 144.111H87.8142C87.8142 136.893 88.3695 131.619 89.48 128.01C91.1459 122.735 94.4775 118.016 99.7526 113.852L109.47 106.356C119.187 98.861 125.851 92.476 129.182 87.7566C135.013 79.7059 138.067 69.712 138.067 58.0524C138.067 38.8973 131.403 24.4616 117.799 14.7453C104.472 5.02896 87.5366 0.0319824 66.9913 0.0319824C51.4436 0.0319824 38.3946 3.3633 27.5667 10.3035ZM90.5906 201.854V162.711H50.0554V201.854H90.5906Z" fill="#F55D3E"/>
</svg>
