<svg width="21" height="21" viewBox="0 0 21 21" fill="none" xmlns="http://www.w3.org/2000/svg">
<path d="M18.5111 21.2598H18.2338C15.1106 20.9213 12.1099 19.8605 9.47114 18.162C7.01973 16.6067 4.93838 14.5374 3.37221 12.0985C1.66325 9.46302 0.598186 6.46518 0.262479 3.34553C0.224093 2.97343 0.261992 2.59745 0.373876 2.24038C0.48576 1.88332 0.669297 1.55262 0.913353 1.26834C1.15073 0.980261 1.44372 0.742561 1.77498 0.569318C2.10624 0.396075 2.46903 0.290813 2.84187 0.259766H5.97571C6.65444 0.260448 7.31056 0.502866 7.82558 0.943243C8.3406 1.38362 8.68058 1.99293 8.78411 2.66114C8.89855 3.51948 9.11294 4.36163 9.42293 5.17057C9.61149 5.67892 9.65041 6.23034 9.53511 6.75996C9.4198 7.28959 9.15508 7.77541 8.77206 8.16028L8.03681 8.8927C9.19442 10.7132 10.7472 12.2518 12.5809 13.3953L13.3161 12.6749C13.7025 12.2933 14.1902 12.0296 14.7218 11.9147C15.2535 11.7999 15.8071 11.8387 16.3174 12.0265C17.1303 12.3325 17.9754 12.5459 18.8365 12.6629C19.5187 12.765 20.1401 13.1117 20.584 13.6379C21.0278 14.164 21.2636 14.8334 21.2471 15.5205V18.4021C21.2472 19.1516 20.9491 19.8705 20.4183 20.4016C19.8874 20.9326 19.167 21.2326 18.4146 21.2358L18.5111 21.2598ZM5.97571 2.04879H3.09499C2.95354 2.0581 2.81546 2.09589 2.68909 2.15987C2.56272 2.22384 2.45068 2.31268 2.35974 2.421C2.27124 2.52247 2.20425 2.64074 2.16283 2.76867C2.1214 2.8966 2.10638 3.03156 2.11868 3.16543C2.41095 5.99517 3.36452 8.71739 4.90297 11.114C6.3212 13.3313 8.20956 15.2123 10.4354 16.6251C12.8427 18.1738 15.5785 19.1439 18.4267 19.4587C18.5748 19.4671 18.7231 19.4447 18.8621 19.393C19.0011 19.3413 19.1278 19.2615 19.2343 19.1586C19.4262 18.9625 19.5342 18.7 19.5356 18.4261V15.5565C19.541 15.3038 19.4532 15.0579 19.2888 14.8654C19.1244 14.6729 18.8949 14.5471 18.6437 14.5119C17.6479 14.3785 16.6698 14.137 15.7268 13.7915C15.541 13.7223 15.3393 13.707 15.1452 13.7474C14.9511 13.7878 14.7724 13.8822 14.6299 14.0196L13.4246 15.2203C13.2834 15.3574 13.1016 15.4455 12.9062 15.4715C12.7107 15.4974 12.5121 15.4599 12.3398 15.3644C9.76787 13.9166 7.63901 11.8001 6.18061 9.2409C6.08079 9.07036 6.04082 8.87157 6.06701 8.67589C6.0932 8.48022 6.18406 8.2988 6.32525 8.16028L7.53057 6.95959C7.6688 6.82034 7.76389 6.64442 7.8045 6.45281C7.8451 6.2612 7.82951 6.062 7.75959 5.87898C7.41148 4.94002 7.16893 3.96551 7.03639 2.97332C7.00649 2.71549 6.8813 2.47798 6.68522 2.30707C6.48914 2.13616 6.23621 2.04409 5.97571 2.04879V2.04879Z" fill="#F55D3E"/>
</svg>
